<svg aria-hidden="true" class="icon icon--type-crane" width="49" height="49" role="img" version="1.1" viewBox="0 0 49 49"><path class="st0" d="M36.7 31.7l0.3-0.3V14h12V6.7l-29-2v-1V0H6v2.5 1.3L2 3.5V14h4v22H0v13h26V36h-6V14.9 14h15v16.5c-1 0.7-2.3 2.2-2.2 3.6 0 0.2 0.1 0.4 0.1 0.6 0 1.6 0.1 4.9 3 5.3C36.3 40 36.6 40 37 40c2.1 0 3.2-1 4.1-2.6 0.7-1.3 1-1.9 0.7-2.5L41 34.4v1l-0.9 0.6c-0.2-0.3-0.4-0.6-0.4-0.7 0 0 0 0.3-0.5 1.1 -0.7 1.3-1.2 1.8-3 1.5 -1-0.1-1.2-1.3-1.2-3.4 0-0.3 0-0.5-0.1-0.7C34.9 33.5 35.7 32.4 36.7 31.7zM4 12V6.4l2 0.1V12H4zM24 38v9H2v-9h4.2 14H24zM17 14.9V36H9V13.9v-10V2.9 2h8v1.3 1.3 9.4V14.9zM20 7.4l27 1.8V12H20V7.4z"/><rect x="12.2" y="18.9" class="st0" width="2" height="2"/><rect x="12.2" y="25.9" class="st0" width="2" height="2"/><rect x="12.2" y="31.9" class="st0" width="2" height="2"/><rect x="12.2" y="12.9" class="st0" width="2" height="2"/><rect x="12.2" y="6.9" class="st0" width="2" height="2"/></svg>
