<svg aria-hidden="true" class="icon icon--type-lightbulb" width="25" height="30" role="img" version="1.1" viewBox="0 0 25.1 30"><path class="st0" d="M21.5 12.7c0-5-4-9-9-9s-9.3 4.1-9.3 9c0 3.4 2.5 6.4 4.5 7.9v0.8 1.2h2 3v-1h-3v-0.3 -1.5 -0.2H9.5c-2.7-1-4.6-3.8-4.6-7 0-4.2 3.4-7.6 7.6-7.6s7.6 3.4 7.6 7.6c0 3.1-1.9 6-4.6 7h0.1v0.2 1.5 1.3h1v-2C19.7 19.1 21.5 16.1 21.5 12.7z"/><rect x="9" y="23.6" class="st0" width="7.1" height="1.3"/><rect x="9" y="26.1" class="st0" width="7.1" height="1.3"/><rect x="11.3" y="28.7" class="st0" width="2.5" height="1.3"/><rect y="12.6" class="st0" width="2.5" height="1.3"/><rect x="22.6" y="12.6" class="st0" width="2.5" height="1.3"/><rect x="3.4" y="3.6" transform="matrix(-0.7071 0.7071 -0.7071 -0.7071 10.2644 5.3497)" class="st0" width="1.3" height="2.5"/><rect x="19.9" y="20" transform="matrix(-0.7071 0.7071 -0.7071 -0.7071 50.0708 21.8238)" class="st0" width="1.3" height="2.5"/><rect x="20.4" y="3.6" transform="matrix(-0.7071 -0.7071 0.7071 -0.7071 32.6366 23.1199)" class="st0" width="1.3" height="2.5"/><rect x="3.9" y="20" transform="matrix(-0.7071 -0.7071 0.7071 -0.7071 -7.2927 39.543)" class="st0" width="1.3" height="2.5"/><rect x="11.9" class="st0" width="1.3" height="2.5"/></svg>
