<svg aria-hidden="true" class="icon icon--type-owly-outline" width="23" height="30" role="img" version="1.1" viewBox="0 0 22.7 30"><path d="M11.4 30c-0.1 0-0.1 0-0.2 0C11 29.9 7 28.2 5 25.8c-0.3 0.4-0.7 1-0.8 1.5 -0.1 0.2-0.2 0.3-0.3 0.3 -0.2 0-0.3 0-0.5-0.1 -2.3-2-3.4-4.1-3.4-6.6s0.8-4.5 2.5-6.2c-1.6-1.4-2.3-3.4-2.3-5.8 0-3.9 1.2-6.9 3.4-8.8C3.7 0 3.8 0 3.9 0 4 0 4.2 0.1 4.2 0.2c0 0 2.7 3.5 7.1 3.5s7.1-3.5 7.1-3.5C18.5 0.1 18.6 0 18.7 0s0.3 0 0.4 0.1c2.2 2 3.4 4.9 3.4 8.8 0 2.4-0.8 4.2-2.2 5.8 1.6 1.6 2.5 3.7 2.5 6.2s-1 4.6-3.4 6.6c-0.1 0.1-0.3 0.1-0.4 0.1s-0.3-0.2-0.3-0.3c-0.1-0.4-0.5-1-0.8-1.5 -2 2.6-6 4.2-6.2 4.2C11.5 30 11.5 30 11.4 30zM5.1 24.4c0.2 0 0.3 0.1 0.4 0.2 1.6 2.4 5 4 5.9 4.4 0.9-0.4 4.4-2 5.9-4.4 0.1-0.1 0.2-0.2 0.3-0.2s0.3 0 0.4 0.1c0.4 0.3 0.9 1 1.2 1.6 1.8-1.6 2.5-3.4 2.5-5.4 0-2.5-0.9-4.4-2.5-5.9 -0.1-0.1-0.2-0.2-0.2-0.4 0-0.1 0.1-0.3 0.2-0.4 1.5-1.4 2.4-3.1 2.4-5.4 0-3.3-1-6-2.7-7.7 -0.9 1-3.5 3.5-7.5 3.5S4.8 2 3.9 1C2.1 2.7 1.2 5.4 1.2 8.7 1.2 11 2 12.8 3.6 14c0.1 0.1 0.2 0.2 0.2 0.4s-0.2 0.4-0.3 0.5C1.8 16.4 1 18.3 1 20.8c0 2 0.8 3.8 2.5 5.4 0.3-0.6 0.8-1.4 1.2-1.6C4.9 24.5 5 24.4 5.1 24.4z"/><path d="M7.7 9.7c0 1-0.9 1.9-1.9 1.9S4 10.7 4 9.7s0.9-1.9 1.9-1.9S7.7 8.7 7.7 9.7z"/><path d="M18.6 9.7c0 1-0.9 1.9-1.9 1.9s-1.9-0.8-1.9-1.9 0.9-1.9 1.9-1.9S18.6 8.7 18.6 9.7z"/></svg>
